# Blender 5.1.0
# www.blender.org
mtllib table.mtl
o Table
v 0.524165 0.841359 0.000009
v 0.000000 0.000000 0.889241
v 0.524165 0.908371 0.000009
v 0.586993 0.841359 0.000009
v 0.586993 0.908371 0.000009
v 0.685882 1.004394 0.889241
v 0.000000 0.000000 0.947756
v 0.685882 1.004394 0.947756
v 0.524165 0.841359 0.889241
v 0.524165 0.908371 0.889241
v 0.586993 0.908371 0.889241
v 0.586993 0.841359 0.889241
v -0.524165 0.841359 0.000009
v -0.524165 0.908371 0.000009
v -0.586993 0.841359 0.000009
v -0.586993 0.908371 0.000009
v -0.685882 1.004394 0.889241
v -0.685882 1.004394 0.947756
v -0.524165 0.841359 0.889241
v -0.524165 0.908371 0.889241
v -0.586993 0.908371 0.889241
v -0.586993 0.841359 0.889241
v 0.524165 -0.841358 0.000009
v 0.524165 -0.908371 0.000009
v 0.586993 -0.841358 0.000009
v 0.586993 -0.908371 0.000009
v 0.685882 -1.004394 0.889241
v 0.685882 -1.004394 0.947756
v 0.524165 -0.841358 0.889241
v 0.524165 -0.908371 0.889241
v 0.586993 -0.908371 0.889241
v 0.586993 -0.841358 0.889241
v -0.524165 -0.841358 0.000009
v -0.524165 -0.908371 0.000009
v -0.586993 -0.841358 0.000009
v -0.586993 -0.908371 0.000009
v -0.685882 -1.004394 0.889241
v -0.685882 -1.004394 0.947756
v -0.524165 -0.841358 0.889241
v -0.524165 -0.908371 0.889241
v -0.586993 -0.908371 0.889241
v -0.586993 -0.841358 0.889241
vn -1.0000 -0.0000 -0.0000
vn -0.0000 1.0000 -0.0000
vn 1.0000 -0.0000 -0.0000
vn -0.0000 -1.0000 -0.0000
vn -0.0000 -0.0000 -1.0000
vn -0.0000 -0.0000 1.0000
vt 0.708098 0.247681
vt 0.708098 0.038552
vt 0.683434 0.038552
vt 0.683434 0.247681
vt 0.871098 0.369237
vt 0.868709 0.136506
vt 0.852508 0.136653
vt 0.854898 0.369383
vt 0.708098 0.458498
vt 0.708098 0.249369
vt 0.683434 0.249369
vt 0.683434 0.458498
vt 0.888408 0.369080
vt 0.886018 0.136349
vt 0.869818 0.136496
vt 0.872207 0.369227
vt 0.839859 0.064904
vt 0.815195 0.064904
vt 0.815195 0.089568
vt 0.839859 0.089568
vt 0.734450 0.038552
vt 0.709786 0.038552
vt 0.709786 0.247681
vt 0.734450 0.247681
vt 0.903327 0.136193
vt 0.887127 0.136339
vt 0.889516 0.369070
vt 0.905717 0.368924
vt 0.734450 0.249369
vt 0.709786 0.249369
vt 0.709786 0.458498
vt 0.734450 0.458498
vt 0.920637 0.136036
vt 0.904436 0.136183
vt 0.906826 0.368914
vt 0.923026 0.368767
vt 0.813506 0.064904
vt 0.788843 0.064904
vt 0.788843 0.089568
vt 0.813506 0.089568
vt 0.760802 0.038552
vt 0.736138 0.038552
vt 0.736138 0.247681
vt 0.760802 0.247681
vt 0.937946 0.135880
vt 0.921745 0.136026
vt 0.924135 0.368757
vt 0.940335 0.368611
vt 0.760802 0.249369
vt 0.736138 0.249369
vt 0.736138 0.458498
vt 0.760802 0.458498
vt 0.280045 0.411241
vt 0.280045 0.381993
vt 0.032047 0.381993
vt 0.032047 0.411241
vt 0.839859 0.038552
vt 0.815195 0.038552
vt 0.815195 0.063216
vt 0.839859 0.063216
vt 0.655394 0.038552
vt 0.630730 0.038552
vt 0.630730 0.458498
vt 0.655394 0.458498
vt 0.974954 0.368298
vt 0.972564 0.135567
vt 0.956364 0.135713
vt 0.958754 0.368444
vt 0.787154 0.247681
vt 0.787154 0.038552
vt 0.762490 0.038552
vt 0.762490 0.247681
vt 0.992263 0.368141
vt 0.989873 0.135410
vt 0.973673 0.135557
vt 0.976063 0.368288
vt 0.787154 0.458498
vt 0.787154 0.249369
vt 0.762490 0.249369
vt 0.762490 0.458498
vt 0.813506 0.038552
vt 0.788843 0.038552
vt 0.788843 0.063216
vt 0.813506 0.063216
vt 0.530045 0.192491
vt 0.530045 0.163243
vt 0.032047 0.163243
vt 0.032047 0.192491
vt 0.681746 0.038552
vt 0.657082 0.038552
vt 0.657082 0.458498
vt 0.681746 0.458498
vt 0.032047 0.223741
vt 0.530045 0.223741
vt 0.530045 0.194493
vt 0.032047 0.194493
vt 0.996599 0.982424
vt 0.996599 0.495453
vt 0.502627 0.495452
vt 0.502627 0.982424
vt 0.500641 0.982424
vt 0.500641 0.495452
vt 0.006669 0.495452
vt 0.006669 0.982424
s 0
usemtl table
f 1/1/1 9/2/1 10/3/1 3/4/1
f 3/5/2 10/6/2 11/7/2 5/8/2
f 5/9/3 11/10/3 12/11/3 4/12/3
f 4/13/4 12/14/4 9/15/4 1/16/4
f 3/17/5 5/18/5 4/19/5 1/20/5
f 13/21/3 14/22/3 20/23/3 19/24/3
f 14/25/2 16/26/2 21/27/2 20/28/2
f 16/29/1 15/30/1 22/31/1 21/32/1
f 15/33/4 13/34/4 19/35/4 22/36/4
f 14/37/5 13/38/5 15/39/5 16/40/5
f 23/41/1 24/42/1 30/43/1 29/44/1
f 24/45/4 26/46/4 31/47/4 30/48/4
f 26/49/3 25/50/3 32/51/3 31/52/3
f 25/53/2 23/54/2 29/55/2 32/56/2
f 24/57/5 23/58/5 25/59/5 26/60/5
f 27/61/4 28/62/4 38/63/4 37/64/4
f 33/65/3 39/66/3 40/67/3 34/68/3
f 34/69/4 40/70/4 41/71/4 36/72/4
f 36/73/1 41/74/1 42/75/1 35/76/1
f 35/77/2 42/78/2 39/79/2 33/80/2
f 34/81/5 36/82/5 35/83/5 33/84/5
f 6/85/3 8/86/3 28/87/3 27/88/3
f 18/89/1 17/90/1 37/91/1 38/92/1
f 6/93/2 17/94/2 18/95/2 8/96/2
f 8/97/6 18/98/6 38/99/6 28/100/6
f 6/101/5 27/102/5 37/103/5 17/104/5
l 2 7
